Coordinates
version=1
nRows=32
nColumns=18
inDegrees=yes

Units are S.I. units (second, meters, Newtons, ...)
If the header above contains a line with 'inDegrees', this indicates whether rotational values are in degrees (yes) or radians (no).

endheader
time	ground_thorax_rot_x	ground_thorax_rot_y	ground_thorax_rot_z	ground_thorax_tx	ground_thorax_ty	ground_thorax_tz	clav_prot	clav_elev	scapula_abduction	scapula_elevation	scapula_upward_rot	scapula_winging	plane_elv	shoulder_elv	axial_rot	elbow_flexion	pro_sup
      0.84000000	     -1.54138700	    -11.69272884	    -24.63396017	      0.00679863	     -0.01414570	      0.03712847	    -23.32940444	    -14.01283230	    -19.10872463	     -9.66981222	      6.50924063	     34.14951381	    -13.96268584	     33.15719370	      3.28861807	     13.35831752	     63.92270238
      0.86000000	     -1.72790422	    -11.75173954	    -25.04064165	      0.00869324	     -0.01444052	      0.03761750	    -23.31415751	    -13.83315317	    -19.22828776	     -9.50027395	      6.37084070	     34.09962418	    -15.05878888	     32.85554970	      3.95771310	     13.18383490	     63.92270238
      0.88000000	     -1.90791327	    -11.86044744	    -25.56099443	      0.01050670	     -0.01510905	      0.03820594	    -23.28953154	    -13.50151828	    -19.44103658	     -9.19291922	      6.13778270	     34.00711676	    -15.61667827	     32.70202556	      3.99861839	     12.93860552	     63.92270238
      0.90000000	     -2.12427969	    -11.95997599	    -25.88004486	      0.01250485	     -0.01512464	      0.03873129	    -23.29697450	    -13.45249945	    -19.51686691	     -9.13391692	      6.04948014	     34.00786962	    -17.34312826	     32.31156774	      5.15030085	     12.96114450	     63.92270238
      0.92000000	     -2.29720951	    -12.12175482	    -26.40406607	      0.01428144	     -0.01581804	      0.03940452	    -23.28404306	    -13.09067527	    -19.76029684	     -8.80216060	      5.80892922	     33.91336275	    -17.89769904	     32.17954406	      5.25493852	     12.71059745	     63.92270238
      0.94000000	     -2.47102670	    -12.26313160	    -26.70405975	      0.01632579	     -0.01584701	      0.03997058	    -23.35514242	    -13.01111600	    -19.90189253	     -8.74497040	      5.79980458	     33.90494431	    -19.71200357	     31.77708795	      6.94816490	     12.71821273	     63.92270238
      0.96000000	     -2.65354170	    -12.48896800	    -27.23197953	      0.01805184	     -0.01657691	      0.04072306	    -23.35641886	    -12.63321209	    -20.16679936	     -8.40348828	      5.56687603	     33.81260978	    -20.25172624	     31.68530938	      7.04944010	     12.50193931	     63.92270238
      0.98000000	     -2.79821877	    -12.62107998	    -27.55431950	      0.01995969	     -0.01665329	      0.04124833	    -23.44213093	    -12.51854960	    -20.31890562	     -8.33402198	      5.60605195	     33.78648404	    -22.06546807	     31.32030157	      8.77300278	     12.50427574	     63.92270238
      1.00000000	     -2.95517845	    -12.87702364	    -27.94427993	      0.02183179	     -0.01704813	      0.04205435	    -23.53892470	    -12.24101523	    -20.58771468	     -8.12462048	      5.57009912	     33.72108822	    -23.24834322	     31.06836498	      9.87772735	     12.40875079	     63.92270238
      1.02000000	     -3.14272776	    -13.16252286	    -28.47154118	      0.02349477	     -0.01777683	      0.04288222	    -23.55444424	    -11.86362209	    -20.86011635	     -7.78965830	      5.35970799	     33.63787056	    -23.81373771	     31.04684732	      9.98222732	     12.22381732	     63.92270238
      1.04000000	     -3.30584086	    -13.37928333	    -28.81295442	      0.02537609	     -0.01794173	      0.04353681	    -23.66679401	    -11.71282118	    -21.01764093	     -7.72094300	      5.49474704	     33.58840677	    -25.57821594	     30.70156629	     11.68739387	     12.23636686	     63.92270238
      1.06000000	     -3.46123693	    -13.69432692	    -29.49101477	      0.02698695	     -0.01881792	      0.04434044	    -23.69661232	    -11.36828092	    -21.26920469	     -7.42643154	      5.34203244	     33.51385183	    -25.92651358	     30.79033842	     11.70416257	     12.07361940	     63.92270238
      1.08000000	     -3.61764346	    -13.86857538	    -29.68967752	      0.02876651	     -0.01888594	      0.04500339	    -23.82710478	    -11.14752091	    -21.48994818	     -7.30235331	      5.45909848	     33.45197274	    -27.81725346	     30.47074760	     13.17875544	     12.10109652	     63.92270238
      1.10000000	     -3.77620356	    -14.17439695	    -30.35853829	      0.03034198	     -0.01973980	      0.04575255	    -23.86061532	    -10.81174070	    -21.73416245	     -7.01927452	      5.32450348	     33.38315880	    -28.14943977	     30.59709282	     13.19644114	     11.93641774	     63.92270238
      1.12000000	     -3.92331277	    -14.38084704	    -30.57458860	      0.03213444	     -0.01987898	      0.04647098	    -24.06236166	    -10.56062401	    -21.95900791	     -6.93956143	      5.67089092	     33.28283349	    -29.95995944	     30.11327048	     15.30381704	     11.73990036	     63.92270238
      1.14000000	     -4.08225102	    -14.66665287	    -31.22149985	      0.03365802	     -0.02072758	      0.04717018	    -24.09699677	    -10.23512991	    -22.19553297	     -6.66751800	      5.54806019	     33.22016898	    -30.28183673	     30.27097756	     15.31437825	     11.57935452	     63.92270238
      1.16000000	     -4.30651557	    -14.87798345	    -31.52408418	      0.03533898	     -0.02098373	      0.04781711	    -24.20883210	    -10.04075447	    -22.31966768	     -6.59449930	      5.78269904	     33.13918507	    -31.94604521	     29.98957850	     16.33814383	     11.47493508	     63.92270238
      1.18000000	     -4.47137379	    -15.14348533	    -32.13956727	      0.03681373	     -0.02181820	      0.04843054	    -24.24582451	     -9.72553421	    -22.54762753	     -6.33479840	      5.67662974	     33.08102794	    -32.25244545	     30.17257392	     16.35229782	     11.31165421	     63.92270238
      1.20000000	     -4.71342739	    -15.40095388	    -32.50704422	      0.03832784	     -0.02233046	      0.04914608	    -24.30942215	     -9.42563151	    -22.79229324	     -6.09752142	      5.60613325	     33.02938035	    -32.91037506	     30.20675727	     16.45840071	     10.90087800	     63.92270238
      1.22000000	     -4.88483823	    -15.58947859	    -32.92428788	      0.03996506	     -0.02273132	      0.04954609	    -24.43934971	     -9.27754776	    -22.79211624	     -6.13369546	      6.10794994	     32.90620900	    -34.60731559	     29.85083557	     18.04354425	     10.80880392	     63.92270238
      1.24000000	     -5.09679892	    -15.83600962	    -33.40347364	      0.04139357	     -0.02344971	      0.05009581	    -24.49288904	     -8.98244110	    -23.02537965	     -5.89714257	      6.02795822	     32.85821186	    -34.96625025	     30.00823959	     18.07072681	     10.53776253	     63.92270238
      1.26000000	     -5.25730040	    -16.04590816	    -33.96065607	      0.04273657	     -0.02426857	      0.05046950	    -24.52987066	     -8.69921550	    -23.22451789	     -5.67061875	      5.95637386	     32.80944845	    -35.23509788	     30.22933050	     18.08168638	     10.38926903	     63.92270238
      1.28000000	     -5.51645814	    -16.25574893	    -34.30532693	      0.04413222	     -0.02475437	      0.05086341	    -24.59547989	     -8.48207631	    -23.38865914	     -5.52399985	      5.99184083	     32.76223296	    -35.86504177	     30.28657182	     18.12363083	      9.85012855	     63.92270238
      1.30000000	     -5.68508156	    -16.44107225	    -34.82284858	      0.04537988	     -0.02555310	      0.05108146	    -24.63321247	     -8.21345597	    -23.57274294	     -5.31413684	      5.94175783	     32.71624482	    -36.11952727	     30.51388934	     18.13655646	      9.71158562	     63.92270238
      1.32000000	     -5.99819234	    -16.66713648	    -35.13133198	      0.04670354	     -0.02603307	      0.05142766	    -24.68638075	     -8.01171281	    -23.69352805	     -5.18858608	      6.01446266	     32.66301594	    -36.73801021	     30.53875036	     18.17367655	      9.17866784	     63.92270238
      1.34000000	     -6.16889639	    -16.82150950	    -35.61267909	      0.04785103	     -0.02681225	      0.05146855	    -24.72287174	     -7.75845399	    -23.86016208	     -4.99548439	      5.98426368	     32.61896443	    -36.97735679	     30.77149967	     18.18754862	      9.04464093	     63.92270238
      1.36000000	     -6.63181970	    -17.04301405	    -35.98879323	      0.04907214	     -0.02723256	      0.05144264	    -24.62428406	     -7.72865985	    -23.34769719	     -5.17158813	      6.71461435	     32.40569051	    -38.80768545	     30.17848075	     19.43864265	      8.52758941	     63.92270238
      1.38000000	     -6.86417299	    -17.16815152	    -36.32693425	      0.05017783	     -0.02779308	      0.05142535	    -24.69344238	     -7.52042105	    -23.52691890	     -5.02544942	      6.72601646	     32.37160860	    -39.13994618	     30.31738187	     19.51385096	      8.06287134	     63.92270238
      1.40000000	     -7.13301357	    -17.29730726	    -36.66476591	      0.05121358	     -0.02835811	      0.05133849	    -24.72693115	     -7.31544781	    -23.63270712	     -4.88923043	      6.77129521	     32.32130520	    -39.50546037	     30.41087583	     19.56335259	      7.60630885	     63.92270238
      1.42000000	     -7.50254305	    -17.47146941	    -37.05542605	      0.05221750	     -0.02893714	      0.05121055	    -24.67082576	     -7.16624544	    -23.47151879	     -4.84748000	      7.02564124	     32.20841750	    -40.21022811	     30.28090231	     20.00779555	      7.15257002	     63.92270238
      1.44000000	     -7.76237779	    -17.55114848	    -37.33411059	      0.05318805	     -0.02942043	      0.05100561	    -24.71596923	     -6.96341810	    -23.61344302	     -4.70346084	      7.03437946	     32.17228599	    -40.55332878	     30.40534105	     20.00219126	      6.68765964	     63.92270238
      1.46000000	     -8.07542411	    -17.63738436	    -37.65213279	      0.05410052	     -0.02991139	      0.05073353	    -24.72163602	     -6.79796146	    -23.64406413	     -4.60437204	      7.11333948	     32.11712954	    -40.95995902	     30.44061333	     20.01215713	      6.17484256	     63.92270238
